<svg xmlns="http://www.w3.org/2000/svg" width="33" height="33" viewBox="0 0 33 33">
  <path id="Exclusion_53" data-name="Exclusion 53" d="M29,33H4a4,4,0,0,1-4-4V4A4,4,0,0,1,4,0H29a4,4,0,0,1,4,4V29A4,4,0,0,1,29,33ZM5.963,23.33A9.177,9.177,0,0,0,10.792,25.2c.57.055,1.139.083,1.69.083a12.584,12.584,0,0,0,6.344-1.551,12.945,12.945,0,0,0,5.134-6.378,12.8,12.8,0,0,0,.9-4.9c-.008-.11-.02-.229-.035-.353a5.834,5.834,0,0,0,1.421-1.2,5.661,5.661,0,0,0,.787-1.128,12.312,12.312,0,0,1-2.561.775A4.214,4.214,0,0,0,26.4,8.059a7.051,7.051,0,0,1-2.8,1.033,4,4,0,0,0-4.018-1.245A4.535,4.535,0,0,0,16.876,9.82a5.235,5.235,0,0,0-.528,3.336,10.332,10.332,0,0,1-3.935-.823A14.638,14.638,0,0,1,7.4,8.575a5.711,5.711,0,0,0-.528,2.807A5.1,5.1,0,0,0,8.782,14.5H8.7a4.324,4.324,0,0,1-1.868-.588,4.935,4.935,0,0,0,.493,2.161,4.882,4.882,0,0,0,2.937,2.28,8.31,8.31,0,0,1-1.033.14c-.142.011-.258.017-.364.017a2.16,2.16,0,0,1-.552-.064A4.5,4.5,0,0,0,12.3,21.475h.1A9.161,9.161,0,0,1,6.93,23.387,8.178,8.178,0,0,1,5.963,23.33Z" fill="#c4c4c4"/>
</svg>
