<svg xmlns="http://www.w3.org/2000/svg" width="32.999" height="33" viewBox="0 0 32.999 33">
  <path id="Exclusion_54" data-name="Exclusion 54" d="M29,33H4a4,4,0,0,1-4-4V4A4,4,0,0,1,4,0H29a4,4,0,0,1,4,4V29A4,4,0,0,1,29,33ZM12.884,18.545h0l6.5,3.788a4.938,4.938,0,0,0-.043.6,2.66,2.66,0,0,0,.775,1.915,2.651,2.651,0,0,0,3.789,0,2.7,2.7,0,0,0,0-3.788,2.553,2.553,0,0,0-1.895-.8,2.649,2.649,0,0,0-1.808.688l-6.543-3.788a3.136,3.136,0,0,0,.085-.646,3.138,3.138,0,0,0-.085-.645l6.457-3.788a2.683,2.683,0,0,0,1.895.775,2.638,2.638,0,0,0,1.958-.818,2.718,2.718,0,0,0,.8-1.958,2.646,2.646,0,0,0-.8-1.938,2.755,2.755,0,0,0-4.714,1.959,3.085,3.085,0,0,0,.086.645L12.884,14.5a2.77,2.77,0,0,0-1.894-.732,2.755,2.755,0,1,0,0,5.511,2.768,2.768,0,0,0,1.894-.731Z" fill="#c4c4c4"/>
</svg>
