<svg width="33" height="33" viewBox="0 0 33 33" fill="none" xmlns="http://www.w3.org/2000/svg">
<rect width="33" height="33" rx="4" fill="#C4C4C4"/>
<path fill-rule="evenodd" clip-rule="evenodd" d="M24.4066 18.97C24.4094 19.5511 24.6649 20.1023 25.1066 20.48C26.6166 21.83 25.5466 24.14 23.4066 24.14H19.6066C19.114 25.4844 17.8383 26.3814 16.4066 26.39C14.9702 26.3962 13.6868 25.4938 13.2066 24.14H9.40657C7.26657 24.14 6.19657 21.83 7.70657 20.48C8.1482 20.1023 8.40369 19.5511 8.40657 18.97V14.14C8.40657 10.2 11.9866 7 16.4066 7C20.8266 7 24.4066 10.2 24.4066 14.14V18.97ZM14.8866 24.14C15.2505 24.611 15.8114 24.8878 16.4066 24.89C16.9877 24.8756 17.5314 24.6001 17.8866 24.14H14.8866Z" fill="white"/>
</svg>
