<svg width="33" height="33" viewBox="0 0 33 33" fill="none" xmlns="http://www.w3.org/2000/svg">
<rect width="33" height="33" rx="4" fill="#C4C4C4"/>
<path fill-rule="evenodd" clip-rule="evenodd" d="M25.4066 18.97C25.4094 19.5511 25.6649 20.1023 26.1066 20.48C27.6166 21.83 26.5466 24.14 24.4066 24.14H20.6066C20.114 25.4844 18.8383 26.3814 17.4066 26.39C15.9702 26.3962 14.6868 25.4938 14.2066 24.14H10.4066C8.26657 24.14 7.19657 21.83 8.70657 20.48C9.1482 20.1023 9.40369 19.5511 9.40657 18.97V14.14C9.40657 10.2 12.9866 7 17.4066 7C21.8266 7 25.4066 10.2 25.4066 14.14V18.97ZM15.8866 24.14C16.2505 24.611 16.8114 24.8878 17.4066 24.89C17.9877 24.8756 18.5314 24.6001 18.8866 24.14H15.8866Z" fill="white"/>
<line x1="17.5" y1="13.5" x2="17.5" y2="19.5" stroke="#C4C4C4" stroke-linecap="round"/>
<line x1="14.5" y1="16.5" x2="20.5" y2="16.5" stroke="#C4C4C4" stroke-linecap="round"/>
</svg>
